<svg width="13" height="29" viewBox="0 0 13 29" fill="none" xmlns="http://www.w3.org/2000/svg">
<path d="M8.375 28.125H4.625C4.12772 28.125 3.65081 27.9275 3.29918 27.5758C2.94754 27.2242 2.75 26.7473 2.75 26.25V19.6875C2.25272 19.6875 1.77581 19.49 1.42418 19.1383C1.07254 18.7867 0.875 18.3098 0.875 17.8125V12.1875C0.875 11.4416 1.17132 10.7262 1.69876 10.1988C2.22621 9.67132 2.94158 9.375 3.6875 9.375H9.3125C10.0584 9.375 10.7738 9.67132 11.3012 10.1988C11.8287 10.7262 12.125 11.4416 12.125 12.1875V17.8125C12.125 18.3098 11.9275 18.7867 11.5758 19.1383C11.2242 19.49 10.7473 19.6875 10.25 19.6875V26.25C10.25 26.7473 10.0525 27.2242 9.70082 27.5758C9.34919 27.9275 8.87228 28.125 8.375 28.125ZM3.6875 11.25C3.56224 11.2417 3.43666 11.2603 3.31916 11.3045C3.20166 11.3487 3.09495 11.4174 3.00619 11.5062C2.91743 11.595 2.84865 11.7017 2.80447 11.8192C2.76028 11.9367 2.74171 12.0622 2.75 12.1875V17.8125H4.625V26.25H8.375V17.8125H10.25V12.1875C10.2583 12.0622 10.2397 11.9367 10.1955 11.8192C10.1514 11.7017 10.0826 11.595 9.99381 11.5062C9.90505 11.4174 9.79834 11.3487 9.68084 11.3045C9.56334 11.2603 9.43776 11.2417 9.3125 11.25H3.6875ZM6.5 8.4375C5.75832 8.4375 5.0333 8.21757 4.41661 7.80551C3.79993 7.39346 3.31928 6.80779 3.03545 6.12256C2.75162 5.43734 2.67736 4.68334 2.82205 3.95591C2.96675 3.22848 3.3239 2.5603 3.84835 2.03585C4.3728 1.5114 5.04098 1.15425 5.76841 1.00956C6.49584 0.864862 7.24984 0.939125 7.93506 1.22295C8.62029 1.50678 9.20596 1.98743 9.61801 2.60411C10.0301 3.2208 10.25 3.94582 10.25 4.6875C10.25 5.68206 9.85491 6.63589 9.15165 7.33915C8.44839 8.04241 7.49456 8.4375 6.5 8.4375ZM6.5 2.8125C6.12916 2.8125 5.76665 2.92247 5.45831 3.1285C5.14996 3.33452 4.90964 3.62736 4.76773 3.96997C4.62581 4.31258 4.58868 4.68958 4.66103 5.0533C4.73337 5.41701 4.91195 5.7511 5.17418 6.01333C5.4364 6.27555 5.77049 6.45413 6.13421 6.52647C6.49792 6.59882 6.87492 6.56169 7.21753 6.41978C7.56014 6.27786 7.85298 6.03754 8.05901 5.7292C8.26503 5.42085 8.375 5.05834 8.375 4.6875C8.375 4.19022 8.17746 3.71331 7.82582 3.36168C7.47419 3.01005 6.99728 2.8125 6.5 2.8125Z" fill="#212223"/>
</svg>
