<svg width="68" height="43" viewBox="0 0 68 43" fill="none" xmlns="http://www.w3.org/2000/svg">
<path d="M43.3391 18.903C38.8878 19.1631 37.4832 20.2753 37.4832 20.2753C36.4498 20.4475 36.8765 23.3469 37.9999 23.031C43.5113 21.4809 46.7838 24.2366 47.3005 27.8535C47.8172 31.4704 44.7398 34.4081 40.0667 36.4652C34.8299 39.1022 34.1634 40.4599 34.383 41.2877C35.0001 43.1538 37.4054 42.7776 39.7222 41.6378C43.5825 40.005 45.167 40.3577 47.4727 41.6378C54.7784 45.5491 59.6021 39.3305 63.146 27.8592C66.7905 21.1398 68.9701 17.2374 67.1073 15.9751C65.5357 15.8174 63.4096 19.3598 59.8735 24.9312C62.0255 15.2033 63.5974 8.84143 61.5959 9.4302C59.4904 9.18217 57.7427 14.3265 54.8788 21.1421C53.6499 12.0777 52.9996 6.28987 51.2619 6.50223C49.0732 7.15055 49.3673 18.903 49.3673 18.903C49.3673 18.903 51.1045 21.1891 51.2619 23.3811C48.7879 20.3345 47.4482 19.4141 43.3391 18.903Z" fill="#3368A9"/>
<path d="M29.269 17.6714C33.5427 18.9431 34.6556 20.3472 34.6556 20.3472C35.6222 20.7513 34.5433 23.4762 33.522 22.9115C28.5115 20.1414 25.5136 20.8521 23.3647 25.4779C22.034 28.8806 24.3576 32.4446 28.436 35.5164C32.9304 39.2817 33.2686 40.7559 32.8654 41.5115C31.8376 43.1869 30.1772 42.2384 28.1826 40.5987C24.7984 38.1259 22.5803 38.1386 20.0428 38.8571C12.036 40.9929 8.76323 33.8355 7.93831 21.8576C5.92803 14.4826 4.69917 10.185 6.80139 9.38237C8.36744 9.58847 9.62652 13.5234 11.7939 19.7561C11.925 9.79392 11.8505 3.24116 13.6642 4.2723C15.7706 4.51262 16.2948 9.92044 17.5232 17.2105C20.7935 8.66779 22.751 3.18231 24.3941 3.78668C26.3763 4.9186 23.4008 16.292 23.4008 16.292C23.4008 16.292 21.1866 18.1199 20.5318 20.2177C23.6372 17.818 25.1521 17.2286 29.269 17.6714Z" fill="#49C45F"/>
<path d="M45.7013 28.8268C45.5551 25.3582 40.6747 21.2319 35.614 26.0964C31.236 20.0969 25.7571 23.1516 24.9464 27.8539C25.1128 30.876 26.858 31.9337 29.1281 33.8795C31.2019 35.8513 31.9145 36.6381 33.8304 39.3925C36.2408 36.2514 38.5668 35.4749 40.6747 34.502C42.7826 33.5291 45.8475 32.2955 45.7013 28.8268Z" fill="#EC1556"/>
</svg>
