<svg width="25" height="26" viewBox="0 0 25 26" fill="none" xmlns="http://www.w3.org/2000/svg">
<path d="M10 19.25H11.25V20.5C11.25 20.8315 11.3817 21.1495 11.6161 21.3839C11.8505 21.6183 12.1685 21.75 12.5 21.75C12.8315 21.75 13.1495 21.6183 13.3839 21.3839C13.6183 21.1495 13.75 20.8315 13.75 20.5V19.25H15C15.3315 19.25 15.6495 19.1183 15.8839 18.8839C16.1183 18.6495 16.25 18.3315 16.25 18C16.25 17.6685 16.1183 17.3505 15.8839 17.1161C15.6495 16.8817 15.3315 16.75 15 16.75H13.75V15.5C13.75 15.1685 13.6183 14.8505 13.3839 14.6161C13.1495 14.3817 12.8315 14.25 12.5 14.25C12.1685 14.25 11.8505 14.3817 11.6161 14.6161C11.3817 14.8505 11.25 15.1685 11.25 15.5V16.75H10C9.66848 16.75 9.35054 16.8817 9.11612 17.1161C8.8817 17.3505 8.75 17.6685 8.75 18C8.75 18.3315 8.8817 18.6495 9.11612 18.8839C9.35054 19.1183 9.66848 19.25 10 19.25ZM21.25 5.5H18.75V4.25C18.75 3.25544 18.3549 2.30161 17.6516 1.59835C16.9484 0.895088 15.9946 0.5 15 0.5H10C9.00544 0.5 8.05161 0.895088 7.34835 1.59835C6.64509 2.30161 6.25 3.25544 6.25 4.25V5.5H3.75C2.75544 5.5 1.80161 5.89509 1.09835 6.59835C0.395088 7.30161 0 8.25544 0 9.25V21.75C0 22.7446 0.395088 23.6984 1.09835 24.4016C1.80161 25.1049 2.75544 25.5 3.75 25.5H21.25C22.2446 25.5 23.1984 25.1049 23.9016 24.4016C24.6049 23.6984 25 22.7446 25 21.75V9.25C25 8.25544 24.6049 7.30161 23.9016 6.59835C23.1984 5.89509 22.2446 5.5 21.25 5.5ZM8.75 4.25C8.75 3.91848 8.8817 3.60054 9.11612 3.36612C9.35054 3.1317 9.66848 3 10 3H15C15.3315 3 15.6495 3.1317 15.8839 3.36612C16.1183 3.60054 16.25 3.91848 16.25 4.25V5.5H8.75V4.25ZM22.5 21.75C22.5 22.0815 22.3683 22.3995 22.1339 22.6339C21.8995 22.8683 21.5815 23 21.25 23H3.75C3.41848 23 3.10054 22.8683 2.86612 22.6339C2.6317 22.3995 2.5 22.0815 2.5 21.75V13H22.5V21.75ZM22.5 10.5H2.5V9.25C2.5 8.91848 2.6317 8.60054 2.86612 8.36612C3.10054 8.1317 3.41848 8 3.75 8H21.25C21.5815 8 21.8995 8.1317 22.1339 8.36612C22.3683 8.60054 22.5 8.91848 22.5 9.25V10.5Z" fill="#212223"/>
</svg>
