<svg width="50" height="51" viewBox="0 0 50 51" fill="none" xmlns="http://www.w3.org/2000/svg">
<path d="M16.2513 5.01416H33.7513C40.418 5.01416 45.8346 10.4308 45.8346 17.0975V34.5975C45.8346 37.8022 44.5616 40.8756 42.2955 43.1417C40.0294 45.4078 36.956 46.6808 33.7513 46.6808H16.2513C9.58464 46.6808 4.16797 41.2642 4.16797 34.5975V17.0975C4.16797 13.8928 5.44103 10.8194 7.7071 8.55329C9.97316 6.28722 13.0466 5.01416 16.2513 5.01416ZM15.8346 9.18083C13.8455 9.18083 11.9379 9.971 10.5313 11.3775C9.12481 12.784 8.33464 14.6917 8.33464 16.6808V35.0142C8.33464 39.16 11.6888 42.5142 15.8346 42.5142H34.168C36.1571 42.5142 38.0647 41.724 39.4713 40.3175C40.8778 38.9109 41.668 37.0033 41.668 35.0142V16.6808C41.668 12.535 38.3138 9.18083 34.168 9.18083H15.8346ZM35.9388 12.3058C36.6295 12.3058 37.2919 12.5802 37.7802 13.0686C38.2686 13.5569 38.543 14.2193 38.543 14.91C38.543 15.6007 38.2686 16.263 37.7802 16.7514C37.2919 17.2398 36.6295 17.5142 35.9388 17.5142C35.2481 17.5142 34.5858 17.2398 34.0974 16.7514C33.609 16.263 33.3346 15.6007 33.3346 14.91C33.3346 14.2193 33.609 13.5569 34.0974 13.0686C34.5858 12.5802 35.2481 12.3058 35.9388 12.3058ZM25.0013 15.4308C27.764 15.4308 30.4135 16.5283 32.367 18.4818C34.3205 20.4353 35.418 23.0848 35.418 25.8475C35.418 28.6102 34.3205 31.2597 32.367 33.2132C30.4135 35.1667 27.764 36.2642 25.0013 36.2642C22.2386 36.2642 19.5891 35.1667 17.6356 33.2132C15.6821 31.2597 14.5846 28.6102 14.5846 25.8475C14.5846 23.0848 15.6821 20.4353 17.6356 18.4818C19.5891 16.5283 22.2386 15.4308 25.0013 15.4308ZM25.0013 19.5975C23.3437 19.5975 21.754 20.256 20.5819 21.4281C19.4098 22.6002 18.7513 24.1899 18.7513 25.8475C18.7513 27.5051 19.4098 29.0948 20.5819 30.2669C21.754 31.439 23.3437 32.0975 25.0013 32.0975C26.6589 32.0975 28.2486 31.439 29.4207 30.2669C30.5928 29.0948 31.2513 27.5051 31.2513 25.8475C31.2513 24.1899 30.5928 22.6002 29.4207 21.4281C28.2486 20.256 26.6589 19.5975 25.0013 19.5975Z" fill="#354A56"/>
</svg>
