<svg width="53" height="52" viewBox="0 0 53 52" fill="none" xmlns="http://www.w3.org/2000/svg">
<path fill-rule="evenodd" clip-rule="evenodd" d="M6.96965 16.4118C11.2638 22.6741 30.248 21.7417 31.3519 21.3841C32.4549 21.0264 29.783 19.4523 29.1661 18.516C19.9015 16.1618 13.818 15.5099 8.98016 11.2203C6.76382 9.25516 4.93142 13.4394 6.96965 16.4118Z" fill="#FBB017"/>
<path fill-rule="evenodd" clip-rule="evenodd" d="M5.70841 36.022C13.287 36.4937 24.24 20.9599 24.6379 19.8699C25.0352 18.7804 23.9713 18.1341 22.8538 18.0437C15.2948 23.895 9.21404 30.0702 2.85517 31.2415C-0.0577207 31.7783 2.1113 35.7982 5.70841 36.022Z" fill="#009B95"/>
<path fill-rule="evenodd" clip-rule="evenodd" d="M19.989 48.9867C25.0265 43.3051 19.529 25.1105 18.9151 24.1259C18.3011 23.142 17.4017 23.4996 16.6425 24.3247C16.5996 33.8837 17.4572 42.56 14.4653 48.292C13.0947 50.9178 17.598 51.6835 19.989 48.9867Z" fill="#1F61AD"/>
<path fill-rule="evenodd" clip-rule="evenodd" d="M39.3015 45.7793C37.9257 38.3118 20.2035 31.4421 19.0497 31.3198C17.8964 31.1979 17.4838 32.1569 17.6665 33.2631C25.1727 39.1819 32.6785 43.8177 35.3533 49.7044C36.5786 52.4009 39.9546 49.3238 39.3015 45.7793Z" fill="#5F439A"/>
<path fill-rule="evenodd" clip-rule="evenodd" d="M48.875 28.6112C42.1436 25.0978 25.8193 34.8338 25.0126 35.6676C24.2063 36.5014 24.8536 37.4159 25.8377 37.9529C35.1231 35.6822 43.2517 32.6225 49.5372 34.1389C52.4166 34.8334 52.0702 30.2786 48.875 28.6112Z" fill="#AF3862"/>
<path fill-rule="evenodd" clip-rule="evenodd" d="M41.2085 10.6685C34.2955 13.8099 31.9174 32.6675 32.0779 33.8168C32.2385 34.9653 33.305 35.1771 34.3342 34.7322C38.2616 26.0172 40.9076 17.5693 45.9722 13.5498C48.2923 11.7085 44.4897 9.17728 41.2085 10.6685Z" fill="#ED2F24"/>
<path fill-rule="evenodd" clip-rule="evenodd" d="M22.4167 5.95878C20.6361 13.3402 34.032 26.8242 35.0363 27.4053C36.0403 27.9858 37.2256 27.424 37.5087 26.3391C33.0589 17.8788 27.6692 10.4445 27.62 3.97887C27.5974 1.01702 23.2618 2.45507 22.4167 5.95878Z" fill="#F47E20"/>
<path fill-rule="evenodd" clip-rule="evenodd" d="M26.9979 18.1324C26.2735 20.6933 27.3774 20.8721 27.8207 21.6607C29.2096 23.4616 32.8652 22.0412 33.3977 21.8215C33.4939 21.7875 33.5939 21.7519 33.6808 21.7206C34.5156 21.4212 35.0546 20.7185 34.8736 20.2148C34.7765 19.9444 34.494 19.7725 34.1245 19.7163C34.5179 19.3822 34.7182 18.9587 34.5976 18.6228C34.4808 18.2975 34.0961 18.1144 33.6136 18.105C33.958 17.7821 34.1255 17.3905 34.0126 17.0762C33.864 16.662 33.2816 16.4769 32.6158 16.59C32.8314 16.3281 32.9245 16.0386 32.8379 15.7981C32.6715 15.3339 31.9133 15.1812 31.1442 15.4574C30.8571 15.5603 30.6093 15.7087 30.4199 15.878C29.3538 16.0228 27.4808 16.4246 26.9979 18.1324Z" fill="#FBB017"/>
<path fill-rule="evenodd" clip-rule="evenodd" d="M35.0603 22.3995C32.4802 23.052 32.8768 24.0974 32.4153 24.8755C31.5495 26.9786 34.6066 29.435 35.063 29.7865C35.1404 29.8527 35.2212 29.9215 35.2919 29.9812C35.9685 30.5548 36.8463 30.6705 37.1923 30.2619C37.378 30.0428 37.3857 29.712 37.2498 29.3641C37.7358 29.5377 38.2026 29.4995 38.4332 29.2272C38.6568 28.9634 38.623 28.5386 38.3901 28.1162C38.842 28.2532 39.2647 28.2025 39.4806 27.9478C39.7652 27.6119 39.6344 27.0151 39.2036 26.4947C39.5383 26.5508 39.8356 26.4866 40.0006 26.2915C40.3195 25.9154 40.0729 25.1822 39.4493 24.6543C39.2166 24.4569 38.9643 24.3164 38.723 24.2368C38.0649 23.3859 36.7808 21.9644 35.0603 22.3995Z" fill="#F47E20"/>
<path fill-rule="evenodd" clip-rule="evenodd" d="M35.863 30.6032C33.7256 29.0177 33.1669 29.9862 32.2722 30.1209C30.0955 30.7806 30.1266 34.7021 30.1433 35.278C30.1409 35.3798 30.1388 35.4859 30.1371 35.5784C30.1209 36.4653 30.5864 37.2184 31.1217 37.2279C31.4089 37.2332 31.67 37.03 31.8535 36.7044C32.0263 37.1909 32.3512 37.5282 32.7082 37.5346C33.0537 37.5409 33.3614 37.2461 33.5413 36.7985C33.7211 37.2351 34.0277 37.5305 34.3615 37.5366C34.8017 37.5446 35.1811 37.0657 35.3118 36.4031C35.48 36.6976 35.7178 36.8873 35.9734 36.8918C36.4664 36.9008 36.8782 36.2461 36.8927 35.4291C36.8986 35.1242 36.8476 34.8397 36.7568 34.6025C36.9993 33.5544 37.2882 31.6608 35.863 30.6032Z" fill="#ED2F24"/>
<path fill-rule="evenodd" clip-rule="evenodd" d="M29.901 37.1239C29.5973 34.4799 28.5085 34.734 27.7987 34.1732C25.8295 33.0354 22.9883 35.7385 22.5793 36.1441C22.5032 36.2119 22.4243 36.2831 22.3559 36.345C21.6973 36.9393 21.4659 37.7941 21.8248 38.1913C22.0173 38.4045 22.344 38.4561 22.707 38.3676C22.4702 38.8264 22.446 39.294 22.6852 39.5588C22.9167 39.8155 23.3423 39.8385 23.7919 39.6638C23.5961 40.0937 23.59 40.5192 23.8139 40.7672C24.1089 41.0938 24.7177 41.0436 25.2909 40.6858C25.191 41.0102 25.2148 41.3133 25.3862 41.5028C25.7166 41.8688 26.476 41.722 27.0823 41.1742C27.3089 40.9699 27.4817 40.7384 27.5928 40.5098C28.5235 39.9707 30.1032 38.8871 29.901 37.1239Z" fill="#AF3862"/>
<path fill-rule="evenodd" clip-rule="evenodd" d="M21.5154 36.2265C23.57 34.5349 22.7649 33.7589 22.8499 32.8584C22.7352 30.5868 18.922 29.6706 18.3591 29.5477C18.2608 29.5208 18.1584 29.4932 18.0691 29.4693C17.2124 29.2396 16.3691 29.5096 16.2307 30.0268C16.1563 30.3042 16.2905 30.6067 16.5621 30.8633C16.0483 30.9135 15.6426 31.1476 15.5503 31.4921C15.4607 31.8261 15.6725 32.1959 16.0635 32.4785C15.5963 32.5475 15.2358 32.7736 15.1493 33.0964C15.0354 33.5215 15.4085 34.0054 16.0201 34.292C15.6936 34.3843 15.4522 34.569 15.3861 34.8161C15.2584 35.2924 15.7943 35.85 16.5836 36.0612C16.8783 36.1403 17.1665 36.1596 17.4187 36.1287C18.3771 36.6172 20.1453 37.3544 21.5154 36.2265Z" fill="#5F439A"/>
<path fill-rule="evenodd" clip-rule="evenodd" d="M17.0726 28.7344C19.7223 28.9828 19.6983 27.8647 20.3933 27.2857C21.913 25.5936 19.8537 22.256 19.5412 21.7721C19.4903 21.6837 19.4373 21.592 19.3907 21.512C18.9449 20.7451 18.1564 20.3423 17.6938 20.6118C17.4454 20.7559 17.3274 21.0653 17.3393 21.4384C16.9395 21.1121 16.4867 20.9922 16.1783 21.1715C15.8794 21.3452 15.7689 21.757 15.8471 22.233C15.467 21.9526 15.0519 21.859 14.7631 22.027C14.3827 22.2482 14.3063 22.8544 14.538 23.4889C14.2414 23.3242 13.9399 23.2851 13.7189 23.4139C13.2926 23.6617 13.2796 24.435 13.6907 25.141C13.8439 25.405 14.0347 25.6218 14.2356 25.7776C14.5709 26.7996 15.3056 28.5689 17.0726 28.7344Z" fill="#1F61AD"/>
<path fill-rule="evenodd" clip-rule="evenodd" d="M29.5932 18.4799C26.9349 17.8044 24.5396 17.2691 22.3594 16.7478C24.1438 18.0584 25.8577 19.636 26.6776 21.615C29.4298 21.6204 31.4412 21.4573 31.7789 21.3479C32.882 20.9902 30.2101 19.4161 29.5932 18.4799Z" fill="#FBB017"/>
<path fill-rule="evenodd" clip-rule="evenodd" d="M20.6942 21.0277C22.5735 22.912 23.2693 22.0368 24.1741 22.0357C26.4244 21.7054 26.9738 17.8224 27.0425 17.2504C27.0599 17.1499 27.0777 17.0455 27.0929 16.9542C27.2401 16.0794 26.8912 15.2657 26.363 15.1772C26.08 15.1294 25.7915 15.2918 25.562 15.5865C25.463 15.08 25.1915 14.6982 24.8396 14.6392C24.4987 14.5816 24.1506 14.8278 23.9066 15.2439C23.7935 14.7855 23.5341 14.4479 23.2046 14.3925C22.7707 14.3195 22.3244 14.737 22.0974 15.373C21.9744 15.0568 21.7674 14.8341 21.5153 14.792C21.029 14.7099 20.5247 15.2966 20.3897 16.1024C20.3389 16.4033 20.347 16.692 20.402 16.9401C20.0067 17.9407 19.441 19.7709 20.6942 21.0277Z" fill="#009B95"/>
<path d="M9.4767 42.0531L2.14844 32.7732L4.60216 22.2549" stroke="#009B95" stroke-width="4" stroke-miterlimit="10" stroke-linejoin="round"/>
<path d="M27.4067 49.7305L15.4943 49.6736L9.47656 42.053" stroke="#1F61AD" stroke-width="4" stroke-miterlimit="10" stroke-linejoin="round"/>
<path d="M44.2978 40.7498L37.0283 49.7767L27.4062 49.7306" stroke="#5F439A" stroke-width="4" stroke-miterlimit="10" stroke-linejoin="round"/>
<path d="M48.1263 22.2166L50.5343 33.0045L44.2969 40.7497" stroke="#AF3862" stroke-width="4" stroke-miterlimit="10" stroke-linejoin="round"/>
<path d="M35.9102 7.14404L45.8454 11.9872L48.1287 22.2164" stroke="#ED2F24" stroke-width="4" stroke-miterlimit="10" stroke-linejoin="round"/>
<path d="M16.2188 7.43609L26.4878 2.55103L35.9101 7.14412" stroke="#F47E20" stroke-width="4" stroke-miterlimit="10" stroke-linejoin="round"/>
<path d="M4.60156 22.2547L7.03998 11.8017L16.2174 7.43604" stroke="#FBB017" stroke-width="4" stroke-miterlimit="10" stroke-linejoin="round"/>
</svg>
