<svg width="62" height="49" viewBox="0 0 62 49" fill="none" xmlns="http://www.w3.org/2000/svg">
<g clip-path="url(#clip0_3117_1023)">
<path fill-rule="evenodd" clip-rule="evenodd" d="M48.3239 26.7C53.2868 21.5568 53.2868 13.1436 48.3239 8.00038C43.816 3.32988 36.5321 4.5011 31.7139 8.83994C30.8251 9.64072 30.5112 10.0393 30.2748 10.0393C30.0349 10.0393 29.721 9.64072 28.8322 8.83994C24.0138 4.50098 16.73 3.32988 12.2222 8.00038C7.25927 13.1436 7.25927 21.5568 12.2222 26.7C17.8129 32.2453 23.4073 37.7872 29.0015 43.3325C29.6365 43.8369 29.9539 44.1121 30.2749 44.1226C30.5923 44.112 30.9099 43.8369 31.5447 43.3325C37.1389 37.7872 42.7332 32.2453 48.3239 26.7Z" fill="#FFCCCF"/>
<path fill-rule="evenodd" clip-rule="evenodd" d="M35.2202 39.0747C36.557 37.6883 36.557 35.4237 35.2202 34.0409C35.2061 34.0267 35.1919 34.0126 35.1779 33.9986C33.9646 32.7922 32.0316 33.1131 30.7512 34.2667C30.5113 34.4819 30.4266 34.5913 30.3596 34.5877C30.2961 34.5913 30.2114 34.4819 29.9716 34.2667C28.6771 33.0991 26.716 32.7851 25.5026 34.041C24.1658 35.4238 24.1658 37.6885 25.5026 39.0748L26.0458 39.6109L30.0175 43.5512C30.1904 43.6853 30.275 43.7593 30.3597 43.7628C30.4479 43.7593 30.5326 43.6851 30.7054 43.5512L34.6772 39.6109L35.1781 39.1136L35.2202 39.0747Z" fill="#FF8086"/>
<path fill-rule="evenodd" clip-rule="evenodd" d="M34.8067 34.9863L34.2036 32.3119L31.3535 31.4871L26.5 36.3622L29.9814 39.812L32.5316 37.2616L34.8067 34.9863Z" fill="#E5646E"/>
<path fill-rule="evenodd" clip-rule="evenodd" d="M35.6003 20.6962C36.0395 20.346 36.2836 19.4595 36.33 18.6871C36.374 17.9549 36.3332 17.0074 35.9177 16.128C33.4486 13.1048 26.3835 13.1048 23.9143 16.128C23.5862 16.9658 23.4798 17.8229 23.5031 18.4589C23.5371 19.3885 23.6484 19.952 24.2318 20.6962C26.828 18.1387 33.0042 18.1387 35.6003 20.6962Z" fill="#E5646E"/>
<path fill-rule="evenodd" clip-rule="evenodd" d="M36.0995 26.7C41.0624 21.5567 41.0624 13.1436 36.0995 8.00035C34.1453 5.97557 31.6727 5.05135 29.1014 5.00195C33.3871 10.1805 33.1648 18.054 28.4347 22.9537L26.8086 24.5658C26.0643 26.7564 24.1385 28.8094 21.7222 31.2611L21.5 31.4868L26.3536 36.3619L34.0889 28.6965L36.0995 26.7Z" fill="#E7B1B9"/>
<path fill-rule="evenodd" clip-rule="evenodd" d="M35.1471 39.8118L32.5969 37.2614L30.3253 34.9861L28.0502 37.2614L25.5 39.8118L29.0519 43.3323C29.6869 43.8367 30.0043 44.112 30.3253 44.1225C30.6428 44.1118 30.9603 43.8367 31.5951 43.3323L35.1471 39.8118Z" fill="#E7B1B9"/>
<path fill-rule="evenodd" clip-rule="evenodd" d="M33.2266 39.0748C34.5634 37.6885 34.5634 35.4238 33.2266 34.041L33.1843 33.9987C32.4294 33.2473 31.3995 33.0886 30.4189 33.3496C31.6429 34.743 31.604 36.9196 30.3059 38.2635L29.7663 38.7997L26.5 42.0379L28.0238 43.5512C28.1966 43.6853 28.2813 43.7593 28.366 43.7628C28.4541 43.7593 28.5388 43.6852 28.7116 43.5512L32.6834 39.611L33.1843 39.1136L33.2266 39.0748Z" fill="#E5646E"/>
<path fill-rule="evenodd" clip-rule="evenodd" d="M35.2201 39.0747C36.5534 37.6883 36.5534 35.4237 35.2201 34.0409C35.206 34.0267 35.1918 34.0126 35.1778 33.9986C33.9609 32.7922 32.0315 33.1131 30.7475 34.2667C30.5077 34.4819 30.423 34.5913 30.3596 34.5877C30.2961 34.5913 30.2114 34.4819 29.9716 34.2667C28.6771 33.0991 26.716 32.7851 25.5026 34.041C24.1658 35.4238 24.1658 37.6885 25.5026 39.0748L26.0423 39.6109L30.0175 43.5512C30.1904 43.6853 30.275 43.7593 30.3597 43.7628C30.4444 43.7593 30.5326 43.6851 30.7019 43.5512L34.6772 39.6109L35.1781 39.1136L35.2201 39.0747Z" fill="#FF8086"/>
<path fill-rule="evenodd" clip-rule="evenodd" d="M33.2299 39.0748C34.5633 37.6885 34.5633 35.4238 33.2299 34.041L33.1877 33.9987C32.4328 33.2473 31.3994 33.0886 30.4188 33.3496C31.6428 34.743 31.6075 36.9196 30.3095 38.2635L29.7663 38.7997L26.5 42.0379L28.0273 43.5512C28.2001 43.6853 28.2848 43.7593 28.3695 43.7628C28.4541 43.7593 28.5423 43.6852 28.7116 43.5512L32.6869 39.611L33.1878 39.1136L33.2299 39.0748Z" fill="#E5646E"/>
<path fill-rule="evenodd" clip-rule="evenodd" d="M29.1718 31.2612C34.2511 26.1075 37.154 22.7175 31.4998 16.1281C31.5845 18.0682 31.5175 19.4793 31.1824 20.6962C30.7274 22.3507 29.7751 23.6452 28.029 25.4197L25.5 27.9842L26.0591 30.6943L28.9496 31.487L29.1718 31.2612Z" fill="#FF8086"/>
<path fill-rule="evenodd" clip-rule="evenodd" d="M34.0416 31.4869L30.592 27.984L28.0595 25.4194C26.3134 23.645 25.3611 22.3505 24.9061 20.696C24.571 19.479 24.5075 18.0679 24.5887 16.1278C18.9344 22.7173 21.8409 26.1073 26.9167 31.261L27.139 31.4867L30.5922 34.9861L32.8638 37.2614L35.414 39.8118L38.8954 36.3618L34.0416 31.4869Z" fill="#FF8086"/>
<path fill-rule="evenodd" clip-rule="evenodd" d="M27.5 27.984L30.9496 31.4869L32.5334 29.8712L29.179 26.4248L27.5 27.984Z" fill="#E5646E"/>
</g>
<defs>
<clipPath id="clip0_3117_1023">
<rect width="60.6401" height="39.1226" fill="white" transform="translate(0.5 5)"/>
</clipPath>
</defs>
</svg>
