<svg width="50" height="50" viewBox="0 0 50 50" fill="none" xmlns="http://www.w3.org/2000/svg">
<g clip-path="url(#clip0_3117_794)">
<path d="M24.9516 49.4516C38.4559 49.4516 49.4033 38.5043 49.4033 25C49.4033 11.4957 38.4559 0.54834 24.9516 0.54834C11.4474 0.54834 0.5 11.4957 0.5 25C0.5 38.5043 11.4474 49.4516 24.9516 49.4516Z" fill="#457899"/>
<path d="M24.9531 0.54834V49.4516C38.4667 49.4516 49.4048 38.5154 49.4048 25C49.4048 11.4864 38.4687 0.54834 24.9531 0.54834Z" fill="#365C75"/>
<path d="M24.9531 43.6969V40.8315C33.6826 40.8315 40.7846 33.7295 40.7846 25H43.65C43.65 35.3095 35.2625 43.6969 24.9531 43.6969Z" fill="#274254"/>
<path d="M9.11933 25H6.25391C6.25391 14.6905 14.6414 6.3031 24.9508 6.3031V9.16853C16.2213 9.16853 9.11933 16.2705 9.11933 25Z" fill="#365C75"/>
<path d="M29.2629 36.5034H20.6427V29.31H13.4492V20.6898H20.6427V13.4963H29.2629V20.6898H36.4563V29.31H29.2629V36.5034Z" fill="#E4F3FF"/>
<path d="M29.2632 20.6899V13.4966H24.9531V36.5036H29.2632V29.3102H36.4566V20.69H29.2632V20.6899Z" fill="#C3DAFD"/>
<path d="M23.506 33.6381H26.3953V26.4446H33.5887V23.5553H26.3953V16.3618H23.506V23.5553H16.3125V26.4446H23.506V33.6381Z" fill="#FF5C5C"/>
<path d="M26.3978 23.5553V16.3618H24.9531V33.6381H26.3978V26.4446H33.5912V23.5553H26.3978Z" fill="#FF3838"/>
</g>
<defs>
<clipPath id="clip0_3117_794">
<rect width="48.9033" height="48.9033" fill="white" transform="translate(0.5 0.54834)"/>
</clipPath>
</defs>
</svg>
