<svg width="50" height="49" viewBox="0 0 50 49" fill="none" xmlns="http://www.w3.org/2000/svg">
<path d="M11.9458 5.68237L15.3435 9.0801C16.1645 9.90105 17.3407 10.2587 18.4798 10.0339L20.3346 9.6677C21.334 9.47037 22.3697 9.72062 23.1686 10.3525L28.2448 14.8213L14.9549 28.4006L10.4465 23.8923C9.73361 23.1793 9.36474 22.1924 9.43532 21.1866L9.61823 18.5815C9.68882 17.5757 9.32004 16.5888 8.60702 15.8758L5.17969 12.4485L11.9458 5.68237Z" fill="#FFCEBF"/>
<path d="M28.243 14.8213L23.167 10.3521C22.3678 9.72094 21.3318 9.47041 20.3326 9.66822L18.4782 10.0339C17.3385 10.2587 16.1618 9.9007 15.3404 9.07938L11.9277 5.66675L10.582 7.01245L14.8759 11.3063C15.6965 12.1269 16.8723 12.4845 18.0109 12.2595L19.8661 11.893C20.7114 11.7264 21.796 12.093 22.5935 12.5922C22.8042 12.7241 23 12.8779 23.1817 13.0475L26.7325 16.3642L28.243 14.8213Z" fill="#FFB09E"/>
<path d="M12.5195 6.25562L5.75459 13.0206L0.504311 7.77028L7.26925 1.00534L12.5195 6.25562Z" fill="#FEC165"/>
<path d="M12.5195 6.25488L11.1738 7.60059L5.92354 2.35031L7.26925 1.0046L12.5195 6.25488Z" fill="#FEA613"/>
<path d="M38.002 5.64355L34.5654 9.08016C33.7444 9.9011 32.5682 10.2588 31.4291 10.034L29.5743 9.66776C28.5749 9.47043 27.5392 9.72068 26.7403 10.3526L21.6641 14.8213L34.954 28.4007L39.4624 23.8923C40.1753 23.1794 40.5442 22.1924 40.4736 21.1867L40.2907 18.5815C40.2201 17.5758 40.5889 16.5888 41.3019 15.8759L44.7681 12.4097L38.002 5.64355Z" fill="#F6A96C"/>
<path d="M41.3022 15.8757C40.5892 16.5887 40.2209 17.5753 40.291 18.5817L40.4747 21.1868C40.5448 22.1921 40.1765 23.1797 39.4634 23.8917L34.9543 28.4008L33.3633 26.7752L36.9768 23.1915C37.7224 22.4459 38.1085 21.4138 38.0344 20.3631L37.8428 17.6394C37.7688 16.5877 38.1548 15.5557 38.9004 14.811L43.0181 10.6567L44.7701 12.4077L41.3022 15.8757Z" fill="#EA9B58"/>
<path d="M42.6367 1L49.4017 7.76494L44.1514 13.0152L37.3864 6.25028L42.6367 1Z" fill="#46CC8D"/>
<path d="M47.6602 6.02173L49.4031 7.76464L44.1528 13.0149L42.4099 11.272L47.6602 6.02173Z" fill="#00C27A"/>
<path d="M11.817 42.9641L15.3448 39.4363C16.1658 38.6153 17.342 38.2576 18.481 38.4825L20.3359 38.8487C21.3353 39.046 22.371 38.7958 23.1699 38.1639L31.8454 30.0959L18.5554 16.5166L10.4477 24.6243C9.7348 25.3372 9.36592 26.3242 9.43651 27.33L9.61942 29.9351C9.69 30.9409 9.32122 31.9278 8.60821 32.6407L5.05078 36.1982L11.817 42.9641Z" fill="#D88A55"/>
<path d="M31.847 30.096L23.1717 38.1645C22.3726 38.7956 21.3365 39.0462 20.3374 38.8484L18.483 38.4826C17.3433 38.2579 16.1665 38.6159 15.3451 39.4372L11.8184 42.964L10.4727 41.6183L14.8806 37.2103C15.7013 36.3896 16.8771 36.0321 18.0157 36.2571L19.8709 36.6236C20.7162 36.7902 21.8007 36.4235 22.5983 35.9244C22.809 35.7925 23.0048 35.6387 23.1865 35.4691L30.3367 28.553L31.847 30.096Z" fill="#C57A44"/>
<path d="M7.26562 47.5164L0.50068 40.7514L5.75096 35.5011L12.5159 42.2661L7.26562 47.5164Z" fill="#5F99D7"/>
<path d="M7.26562 47.5173L5.91992 46.1716L11.1702 40.9214L12.5159 42.2671L7.26562 47.5173Z" fill="#3C87D0"/>
<path d="M32.8744 18.5412C31.7681 19.1335 31.3935 20.538 32.0579 21.6026L23.6617 13.2259C22.8986 12.4628 21.6614 12.4628 20.8984 13.2259C20.2057 13.9185 20.144 15.0008 20.709 15.7656L19.6989 14.7555C18.9358 13.9925 17.6986 13.9925 16.9356 14.7555C16.1725 15.5186 16.1725 16.7558 16.9356 17.5188L20.0828 20.666C19.3155 19.9816 18.1392 20.0053 17.4029 20.7416C16.6399 21.5047 16.6399 22.7419 17.4029 23.5049L21.4646 27.5666C20.7688 26.8707 19.6405 26.8707 18.9447 27.5666C18.2489 28.2624 18.2489 29.3906 18.9447 30.0864L26.355 37.4967C27.073 38.2147 28.067 38.5861 29.0798 38.515L31.7034 38.3307C32.7163 38.2596 33.7103 38.6311 34.4282 39.349L38.1731 43.0938L44.9871 36.2799L41.2719 32.5651C40.4452 31.7383 40.0849 30.5538 40.3114 29.4067L40.6803 27.5387C40.879 26.5322 40.627 25.4892 39.9906 24.6845L35.7482 19.3202C35.1477 18.3405 33.8874 17.9989 32.8744 18.5412Z" fill="#FED2A4"/>
<path d="M35.7482 19.3202L39.9914 24.6843C40.627 25.4891 40.8793 26.5325 40.6802 27.5387L40.3118 29.4063C40.0853 30.5544 40.4451 31.7383 41.2721 32.5653L44.9871 36.2803L43.6319 37.6355L39.0315 33.035C38.2044 32.2079 37.844 31.0234 38.0704 29.8767L38.4395 28.0085C38.638 27.0016 38.0851 25.6575 37.4487 24.8534L34.3929 20.6754C33.8547 19.7989 32.7884 19.4334 31.8438 19.7558C32.0143 19.2542 32.3683 18.8127 32.875 18.5411C33.8878 17.9987 35.1484 18.3405 35.7482 19.3202Z" fill="#FFBD86"/>
<path d="M32.7082 23.1876L32.7076 23.1882C32.4413 23.4653 31.9995 23.4701 31.7271 23.1989L22.9931 14.5021C22.6115 14.1213 22.1116 13.9305 21.6119 13.9305C21.1564 13.9305 20.7019 14.0889 20.3359 14.4046C20.3803 13.9747 20.5681 13.5556 20.8977 13.2261C21.2793 12.8444 21.7792 12.6536 22.2789 12.6536C22.7797 12.6536 23.2794 12.8444 23.6611 13.2261L32.6976 22.2243C32.9632 22.4889 32.9679 22.9174 32.7082 23.1876Z" fill="#FFBD86"/>
<path d="M29.9796 26.0071C29.7112 26.2755 29.276 26.2755 29.0076 26.0071L19.0322 16.0317C18.3032 15.3037 17.1424 15.2712 16.375 15.9342C16.4193 15.5034 16.6072 15.0852 16.9367 14.7557C17.6991 13.9922 18.9367 13.9922 19.7001 14.7557L29.9796 25.0351C30.248 25.3035 30.248 25.7387 29.9796 26.0071Z" fill="#FFBD86"/>
<path d="M27.2215 28.7667C26.9531 29.0351 26.5179 29.0351 26.2495 28.7667L19.5009 22.0181C19.1192 21.6364 18.6184 21.4456 18.1187 21.4456C17.6642 21.4456 17.2097 21.6039 16.8438 21.9207C16.8881 21.4899 17.0759 21.0708 17.4055 20.7412C17.7871 20.3605 18.287 20.1697 18.7877 20.1697C19.2874 20.1697 19.7872 20.3605 20.1689 20.7412L27.2216 27.7949C27.4899 28.0632 27.4898 28.4983 27.2215 28.7667Z" fill="#FFBD86"/>
<path d="M24.4375 31.5299L24.4373 31.53C24.1674 31.7887 23.7403 31.7842 23.4759 31.5199L20.7986 28.8435C20.1513 28.1952 19.1291 28.15 18.4297 28.7097C18.4562 28.2926 18.6285 27.8843 18.9472 27.5666C19.6427 26.871 20.7711 26.871 21.4676 27.5666L24.4479 30.5478C24.7204 30.8203 24.7157 31.2633 24.4375 31.5299Z" fill="#FFBD86"/>
<path d="M49.4141 40.698L42.6012 47.5109L37.3137 42.2234L44.1266 35.4105L49.4141 40.698Z" fill="#FE4FB7"/>
<path d="M49.4141 40.697L48.0588 42.0523L42.7713 36.7648L44.1266 35.4095L49.4141 40.697Z" fill="#FE2AA8"/>
</svg>
