<svg width="50" height="50" viewBox="0 0 50 50" fill="none" xmlns="http://www.w3.org/2000/svg">
<g clip-path="url(#clip0_3117_1693)">
<path d="M33.6309 34.855H15.5127C9.99171 34.855 5.5 39.3467 5.5 44.8677V49.4505H43.6436V44.8677C43.6435 39.3467 39.1519 34.855 33.6309 34.855Z" fill="#BEEBFA"/>
<path d="M43.644 44.8677C43.644 39.3467 39.1524 34.855 33.6313 34.855H24.5742V49.4506H43.644V44.8677Z" fill="#7ED8F6"/>
<path d="M18.9414 30.4717V36.7596L24.5744 44.3819L30.2048 36.7593V30.4717H18.9414Z" fill="#FFDDCE"/>
<path d="M30.2038 36.7593V30.4717H24.5742V44.381L30.2038 36.7593Z" fill="#FFCBBC"/>
<path d="M21.0686 25.4838L22.739 24.7837C23.9033 24.2957 25.2389 24.2957 26.4034 24.7837L28.0737 25.4838C30.0951 26.3312 32.2314 26.7607 34.4233 26.7607H35.4971C36.258 25.0575 36.6618 23.2001 36.6618 21.3161V12.5723H12.4805V21.3161C12.4805 23.2002 12.8843 25.0575 13.6452 26.7607H14.719C16.9108 26.7607 19.0471 26.3312 21.0686 25.4838Z" fill="#FFDDCE"/>
<path d="M24.5742 12.572V24.4176C25.1985 24.4179 25.8228 24.5399 26.4044 24.7837L28.0748 25.4838C30.0961 26.3311 32.2324 26.7606 34.4243 26.7606H35.4981C36.259 25.0574 36.6628 23.2 36.6628 21.3161V12.5722H24.5742V12.572Z" fill="#FFCBBC"/>
<path d="M18.3633 17.4075H21.2287V20.2731H18.3633V17.4075Z" fill="#5D5655"/>
<path d="M27.9141 17.4075H30.7795V20.2731H27.9141V17.4075Z" fill="#5D5655"/>
<path d="M12.4805 0.54834H36.6617V14.4825H12.4805V0.54834Z" fill="#BEEBFA"/>
<path d="M24.5742 0.54834H36.6628V14.4825H24.5742V0.54834Z" fill="#7ED8F6"/>
<path d="M27.3199 6.56025H26.0048V5.24512H23.1394V6.56025H21.8242V9.42568H23.1394V10.7408H26.0048V9.42568H27.3199V6.56025Z" fill="#7ED8F6"/>
<path d="M33.7688 34.8567C33.7234 34.8561 33.6781 34.855 33.6327 34.855H30.2053L24.5756 42.4799L18.9418 34.855H15.5144C15.4691 34.855 15.4241 34.8561 15.3789 34.8567L23.1419 45.3612V49.4506H26.0074V45.3644L33.7688 34.8567Z" fill="#7ED8F6"/>
<path d="M34.4237 23.8952C32.6143 23.8952 30.8506 23.5406 29.1818 22.8411L27.5115 22.141C25.6431 21.358 23.5 21.358 21.6318 22.141L19.9614 22.8411C18.2926 23.5406 16.5289 23.8952 14.7195 23.8952H12.7344C13.1572 26.0328 14.1 28.054 15.4905 29.7559C17.4311 32.1311 20.1553 33.7759 23.161 34.3873L24.5716 34.6741L25.9822 34.3873C28.9878 33.7759 31.712 32.1311 33.6527 29.7559C35.0432 28.054 35.986 26.0328 36.4088 23.8952H34.4237Z" fill="#E1EBF0"/>
<path d="M27.9141 17.4075H30.7795V20.2731H27.9141V17.4075Z" fill="#3B3735"/>
<path d="M33.6532 29.7558C35.0438 28.0539 35.9865 26.0327 36.4093 23.8952H34.4242C32.6148 23.8952 30.8511 23.5405 29.1824 22.8411L27.512 22.1409C26.5784 21.7497 25.5764 21.554 24.5742 21.5537V34.6737L25.9827 34.3872C28.9884 33.7759 31.7125 32.1311 33.6532 29.7558Z" fill="#BED9DD"/>
<path d="M26.0048 9.42568H27.32V6.56025H26.0048V5.24512H24.5742V10.7408H26.0048V9.42568Z" fill="#2FC0F0"/>
<path d="M33.6313 34.855H30.2039L24.5742 42.4799V49.4506H26.006V45.3644L33.7675 34.8568C33.722 34.8561 33.6767 34.855 33.6313 34.855Z" fill="#2FC0F0"/>
<path d="M36.635 42.5729V35.3151C35.7282 35.0295 34.7662 34.8702 33.7695 34.8567V42.5729H36.635Z" fill="#0B799D"/>
<path d="M36.635 42.5729V35.3151C35.7282 35.0295 34.7662 34.8702 33.7695 34.8567V42.5729H36.635Z" fill="#07485E"/>
<path d="M15.3771 42.8874V34.8567C14.3805 34.8701 13.4184 35.0293 12.5117 35.3149V42.8874H15.3771Z" fill="#0B799D"/>
<path d="M39.953 49.4515H37.0875V45.892C37.0875 44.8519 36.2413 44.0056 35.2011 44.0056C34.1609 44.0056 33.3147 44.8519 33.3147 45.892V49.4515H30.4492V45.892C30.4492 43.2719 32.5809 41.1401 35.2011 41.1401C37.8213 41.1401 39.953 43.2719 39.953 45.892V49.4515Z" fill="#FAF0F0"/>
<path d="M39.953 49.4515H37.0875V45.892C37.0875 44.8519 36.2413 44.0056 35.2011 44.0056C34.1609 44.0056 33.3147 44.8519 33.3147 45.892V49.4515H30.4492V45.892C30.4492 43.2719 32.5809 41.1401 35.2011 41.1401C37.8213 41.1401 39.953 43.2719 39.953 45.892V49.4515Z" fill="#EFE2DD"/>
<path d="M13.9432 49.4504C11.7387 49.4504 9.94531 47.6571 9.94531 45.4526C9.94531 43.2482 11.7387 41.4548 13.9432 41.4548C16.1475 41.4548 17.9409 43.2482 17.9409 45.4526C17.9409 47.6571 16.1475 49.4504 13.9432 49.4504Z" fill="#FAF0F0"/>
</g>
<defs>
<clipPath id="clip0_3117_1693">
<rect width="38.1436" height="48.9033" fill="white" transform="translate(5.5 0.54834)"/>
</clipPath>
</defs>
</svg>
