<svg width="50" height="49" viewBox="0 0 50 49" fill="none" xmlns="http://www.w3.org/2000/svg">
<path d="M24.9516 48.9033C38.4559 48.9033 49.4033 37.9559 49.4033 24.4516C49.4033 10.9474 38.4559 0 24.9516 0C11.4474 0 0.5 10.9474 0.5 24.4516C0.5 37.9559 11.4474 48.9033 24.9516 48.9033Z" fill="#FAC176"/>
<path d="M15.1104 29.2916C13.5245 30.3566 12.0348 31.5585 10.6585 32.8835C9.53031 34.1941 8.75414 35.7702 8.40309 37.4635C5.46394 33.7639 3.86627 29.1769 3.8711 24.4519C3.8711 24.3423 3.8711 24.2327 3.87954 24.123C3.94699 26.3321 5.39722 28.6677 8.97222 28.6677C11.0292 28.7494 13.0791 28.9578 15.1104 29.2916Z" fill="#802D40"/>
<path d="M45.2555 18.8111C43.8634 15.5968 40.6975 13.5142 37.1947 13.5087C33.6919 13.5032 30.5195 15.5758 29.1174 18.7858C28.3566 20.4857 28.1387 22.379 28.4934 24.2073C27.1407 23.6143 25.633 23.4724 24.1933 23.8026C23.6914 23.9479 23.2541 24.2602 22.9539 24.6879C22.8017 24.5531 22.6381 24.4317 22.4648 24.3253C21.81 23.8999 21.0528 23.6582 20.2726 23.6255C20.1467 23.6113 20.0199 23.6057 19.8932 23.6087H9.81742C8.97426 23.6087 9.81742 20.236 6.44478 20.236C5.01984 20.236 4.05021 21.7284 3.89844 23.4569C4.41393 12.3914 13.4134 3.6167 24.4884 3.38124C24.6402 3.37281 24.8004 3.3728 24.9521 3.3728C26.093 3.37229 27.232 3.46251 28.3585 3.64262C36.4655 4.97392 43.0604 10.8941 45.2555 18.8111Z" fill="#802D40"/>
<path d="M33.4766 43.7148C34.7147 42.4766 35.8134 41.1064 36.7531 39.6288C37.3307 38.4391 37.7231 37.1681 37.9166 35.8599V35.8515C37.9841 35.4889 38.0431 35.1601 38.1021 34.8565V34.8481C38.1743 34.2152 38.4459 33.6216 38.8778 33.1534C38.9998 33.0453 39.136 32.9546 39.2826 32.8835C41.4158 31.8127 44.1392 30.1264 45.1847 27.8246C45.6395 26.3771 45.9142 24.879 46.0025 23.3643C46.0194 23.7268 46.0278 24.0894 46.0278 24.4519C46.0277 32.7918 41.1057 40.3458 33.4766 43.7148Z" fill="#802D40"/>
<path d="M25.7952 19.2748C25.7952 21.5935 24.092 23.2545 22.4647 24.3253C21.5462 24.9188 20.5615 25.4027 19.5305 25.7671C19.4437 25.7969 19.3524 25.8112 19.2607 25.8093C18.8982 25.8102 18.5757 25.5794 18.4597 25.2359C18.3168 24.794 18.5526 24.3188 18.9908 24.1651C19.0077 24.1567 19.5473 23.9712 20.2725 23.6255C21.7817 22.8835 24.1088 21.3996 24.1088 19.2748C24.1088 17.6391 23.4006 17.0067 22.4225 16.1298C20.7567 14.8946 19.8097 12.9153 19.893 10.8432C19.824 7.66864 21.6224 4.74844 24.4883 3.38124C24.64 3.37281 24.8002 3.3728 24.952 3.3728C26.0928 3.37229 27.2319 3.46251 28.3584 3.64262L25.264 4.88206C22.9572 5.95687 21.5093 8.29929 21.5794 10.8432C21.4954 12.4398 22.2413 13.9668 23.5523 14.8819C24.9766 15.8886 25.8151 17.5309 25.7952 19.2748Z" fill="#FB7B76"/>
<path d="M46.0071 23.3472V23.3641C45.9188 24.8788 45.6441 26.3769 45.1892 27.8244C44.1437 30.1262 41.4203 31.8126 39.2871 32.8834C39.1405 32.9544 39.0043 33.0452 38.8824 33.1532C38.4505 33.6214 38.1788 34.215 38.1067 34.8479V34.8564C38.0477 35.1599 37.9886 35.4887 37.9212 35.8513V35.8597C37.7276 37.168 37.3352 38.439 36.7576 39.6287C35.813 41.1095 34.7105 42.4835 33.4693 43.7264C30.7897 44.9217 27.8875 45.5366 24.9534 45.5308C18.492 45.5329 12.3886 42.5636 8.40215 37.4786C8.75211 35.7795 9.52987 34.1979 10.6618 32.8834C12.0381 31.5584 13.5277 30.3565 15.1137 29.2915C13.0824 28.9577 11.0324 28.7493 8.9755 28.6676C5.4005 28.6676 3.95027 26.332 3.88281 24.1229C3.88281 23.9037 3.89124 23.6761 3.89968 23.4568C4.05144 21.7284 5.02108 20.236 6.44602 20.236C9.81866 20.236 8.9755 23.6086 9.81866 23.6086H19.8944C21.0137 23.5732 22.1056 23.9583 22.9551 24.6879C23.2553 24.2602 23.6926 23.9478 24.1945 23.8025C25.6342 23.4723 27.1419 23.6142 28.4947 24.2073C28.14 22.3789 28.3578 20.4857 29.1186 18.7857C30.5207 15.5758 33.6931 13.5032 37.1959 13.5087C40.6987 13.5142 43.8647 15.5967 45.2567 18.811C45.26 18.8259 45.2657 18.8401 45.2735 18.8532C45.6821 20.3198 45.9281 21.8269 46.0071 23.3472Z" fill="#FDD7AD"/>
<path d="M38.8812 33.1531C38.4493 33.6214 38.1776 34.2149 38.1055 34.8479C37.4428 33.9491 36.5561 33.2398 35.5339 32.7906L28.7886 29.4179C28.4968 29.2964 28.2975 29.022 28.2722 28.7069C28.247 28.3919 28.4 28.0892 28.6687 27.9227C28.9374 27.7563 29.2766 27.7541 29.5474 27.9171L36.2927 31.2897C37.261 31.7494 38.138 32.3807 38.8812 33.1531Z" fill="#F9C795"/>
<path d="M39.6352 27.8244C38.9641 27.8255 38.3202 27.5591 37.8461 27.0841C37.5265 26.7533 37.5311 26.2274 37.8563 25.9022C38.1816 25.5769 38.7075 25.5723 39.0383 25.8919C39.3675 26.2213 39.9015 26.2215 40.2309 25.8923C40.5604 25.5631 40.5606 25.0291 40.2314 24.6997C40.0122 24.488 39.9243 24.1745 40.0014 23.8797C40.0786 23.5849 40.3088 23.3547 40.6036 23.2775C40.8984 23.2003 41.2119 23.2882 41.4236 23.5074C42.1462 24.2309 42.3621 25.3183 41.9708 26.263C41.5794 27.2077 40.6578 27.8238 39.6352 27.8244Z" fill="#F9C795"/>
<path d="M31.9341 25.0369C31.7503 24.9096 27.4114 21.9282 23.9451 22.999C22.7906 23.3425 21.9221 24.2984 21.6905 25.4804C21.3448 26.9981 21.8153 28.8817 23.0185 30.988C22.7546 31.7181 22.4755 32.3463 22.403 32.4913C21.6652 33.8952 19.3887 35.4972 16.9798 36.299C16.6936 36.3944 16.48 36.6351 16.4195 36.9306C16.359 37.2261 16.4607 37.5315 16.6864 37.7316C16.912 37.9318 17.2273 37.9964 17.5135 37.901C20.3803 36.9449 22.946 35.0866 23.903 33.2636C23.9519 33.1667 24.0379 32.9778 24.1441 32.7308C25.5236 34.6007 27.0849 36.3295 28.8051 37.8918C29.1477 38.1985 29.6729 38.1742 29.9857 37.837C30.2984 37.4999 30.2834 36.9743 29.9518 36.6557C24.4266 31.5301 22.9114 27.7182 23.3347 25.8573C23.4356 25.2625 23.8681 24.7779 24.4477 24.6103C27.1222 23.784 30.94 26.3953 30.9754 26.4214C31.3577 26.6873 31.8832 26.5929 32.1491 26.2106C32.415 25.8283 32.3206 25.3028 31.9383 25.0369H31.9341Z" fill="#F9C795"/>
</svg>
