<svg width="50" height="51" viewBox="0 0 50 51" fill="none" xmlns="http://www.w3.org/2000/svg">
<path d="M9.61458 40.4311C8.65625 40.4311 7.85625 40.1102 7.21458 39.4686C6.57153 38.8255 6.25 38.0248 6.25 37.0665V14.629C6.25 13.6707 6.57153 12.8707 7.21458 12.229C7.85625 11.5859 8.65625 11.2644 9.61458 11.2644H40.3854C41.3438 11.2644 42.1437 11.5859 42.7854 12.229C43.4285 12.8707 43.75 13.6707 43.75 14.629V37.0665C43.75 38.0248 43.4292 38.8248 42.7875 39.4665C42.1444 40.1095 41.3438 40.4311 40.3854 40.4311H9.61458ZM25 26.0873L8.33333 15.1915V37.0665C8.33333 37.4401 8.45347 37.747 8.69375 37.9873C8.93403 38.2276 9.24097 38.3477 9.61458 38.3477H40.3854C40.759 38.3477 41.066 38.2276 41.3062 37.9873C41.5465 37.747 41.6667 37.4401 41.6667 37.0665V15.1915L25 26.0873ZM25 23.7644L41.025 13.3477H8.975L25 23.7644ZM8.33333 15.1915V13.3477V37.0665C8.33333 37.4401 8.45347 37.747 8.69375 37.9873C8.93403 38.2276 9.24097 38.3477 9.61458 38.3477H8.33333V15.1915Z" fill="#354A56"/>
</svg>
