<svg width="31" height="30" viewBox="0 0 31 30" fill="none" xmlns="http://www.w3.org/2000/svg">
<g clip-path="url(#clip0_3137_4546)">
<path d="M26.3346 6.66663H19.668V8.33329H26.3346V25.8333H19.668V27.5H28.0013V8.33329C28.0013 7.89127 27.8257 7.46734 27.5131 7.15478C27.2006 6.84222 26.7767 6.66663 26.3346 6.66663Z" fill="#212223"/>
<path d="M17.0654 2.5H5.5987C5.13015 2.5 4.68079 2.68613 4.34948 3.01744C4.01816 3.34876 3.83203 3.79812 3.83203 4.26667V27.5H18.832V4.26667C18.832 3.79812 18.6459 3.34876 18.3146 3.01744C17.9833 2.68613 17.5339 2.5 17.0654 2.5ZM17.1654 25.8333H14.6654V23.3333H7.9987V25.8333H5.4987V4.26667C5.4987 4.25353 5.50128 4.24053 5.50631 4.2284C5.51134 4.21627 5.5187 4.20524 5.52799 4.19596C5.53727 4.18667 5.5483 4.1793 5.56043 4.17428C5.57256 4.16925 5.58557 4.16667 5.5987 4.16667H17.0654C17.0785 4.16667 17.0915 4.16925 17.1036 4.17428C17.1158 4.1793 17.1268 4.18667 17.1361 4.19596C17.1454 4.20524 17.1527 4.21627 17.1578 4.2284C17.1628 4.24053 17.1654 4.25353 17.1654 4.26667V25.8333Z" fill="#212223"/>
<path d="M7.16797 6.66663H8.83464V8.33329H7.16797V6.66663Z" fill="#212223"/>
<path d="M10.5 6.66663H12.1667V8.33329H10.5V6.66663Z" fill="#212223"/>
<path d="M13.832 6.66663H15.4987V8.33329H13.832V6.66663Z" fill="#212223"/>
<path d="M7.16797 10.8334H8.83464V12.5H7.16797V10.8334Z" fill="#212223"/>
<path d="M10.5 10.8334H12.1667V12.5H10.5V10.8334Z" fill="#212223"/>
<path d="M13.832 10.8334H15.4987V12.5H13.832V10.8334Z" fill="#212223"/>
<path d="M7.16797 15H8.83464V16.6667H7.16797V15Z" fill="#212223"/>
<path d="M10.5 15H12.1667V16.6667H10.5V15Z" fill="#212223"/>
<path d="M13.832 15H15.4987V16.6667H13.832V15Z" fill="#212223"/>
<path d="M7.16797 19.1666H8.83464V20.8333H7.16797V19.1666Z" fill="#212223"/>
<path d="M10.5 19.1666H12.1667V20.8333H10.5V19.1666Z" fill="#212223"/>
<path d="M13.832 19.1666H15.4987V20.8333H13.832V19.1666Z" fill="#212223"/>
<path d="M19.668 10.8334H21.3346V12.5H19.668V10.8334Z" fill="#212223"/>
<path d="M23 10.8334H24.6667V12.5H23V10.8334Z" fill="#212223"/>
<path d="M19.668 15H21.3346V16.6667H19.668V15Z" fill="#212223"/>
<path d="M23 15H24.6667V16.6667H23V15Z" fill="#212223"/>
<path d="M19.668 19.1666H21.3346V20.8333H19.668V19.1666Z" fill="#212223"/>
<path d="M23 19.1666H24.6667V20.8333H23V19.1666Z" fill="#212223"/>
</g>
<defs>
<clipPath id="clip0_3137_4546">
<rect width="30" height="30" fill="white" transform="translate(0.5)"/>
</clipPath>
</defs>
</svg>
