<svg width="50" height="51" viewBox="0 0 50 51" fill="none" xmlns="http://www.w3.org/2000/svg">
<path d="M17.467 6.0126L15.6745 6.5526C14.0785 7.03392 12.6531 7.96116 11.5662 9.22519C10.4794 10.4892 9.77621 12.0374 9.53951 13.6876C8.79701 18.8576 10.457 24.9026 14.4595 31.8351C18.452 38.7501 22.847 43.2051 27.6845 45.1551C29.2388 45.7815 30.9403 45.9485 32.5868 45.636C34.2332 45.3236 35.7553 44.5449 36.972 43.3926L38.327 42.1076C39.2069 41.2749 39.7545 40.151 39.8681 38.9449C39.9816 37.7388 39.6535 36.5324 38.9445 35.5501L35.5545 30.8501C35.0962 30.2156 34.4508 29.7404 33.7088 29.4911C32.9669 29.2418 32.1655 29.231 31.417 29.4601L26.2895 31.0276L26.157 31.0526C25.592 31.1351 24.287 29.9126 22.662 27.0976C20.962 24.1526 20.612 22.4301 21.0795 21.9851L23.687 19.5526C24.6405 18.6638 25.2919 17.4987 25.5497 16.2209C25.8075 14.9431 25.6588 13.6166 25.1245 12.4276L23.4695 8.7501C22.9719 7.64345 22.0888 6.75554 20.9848 6.25188C19.8809 5.74821 18.629 5.66317 17.467 6.0126ZM21.1945 9.7751L22.8445 13.4526C23.1659 14.1657 23.2557 14.9615 23.1015 15.7283C22.9472 16.4951 22.5566 17.1942 21.9845 17.7276L19.3695 20.1626C17.6945 21.7476 18.2495 24.4526 20.4995 28.3476C22.6145 32.0126 24.5445 33.8226 26.6195 33.5076L26.9295 33.4426L32.1495 31.8501C32.399 31.7735 32.6663 31.7768 32.9138 31.8598C33.1613 31.9427 33.3766 32.1011 33.5295 32.3126L36.9195 37.0126C37.2745 37.5037 37.439 38.1071 37.3824 38.7104C37.3259 39.3137 37.0521 39.876 36.612 40.2926L35.2545 41.5776C34.3854 42.4002 33.2984 42.9559 32.1226 43.1788C30.9469 43.4017 29.7319 43.2824 28.622 42.8351C24.377 41.1251 20.3645 37.0576 16.627 30.5851C12.8795 24.0976 11.362 18.5801 12.0145 14.0426C12.1834 12.8637 12.6856 11.7575 13.4621 10.8545C14.2385 9.95137 15.2568 9.28892 16.397 8.9451L18.1895 8.4051C18.7707 8.23047 19.3955 8.27317 19.9475 8.52524C20.4994 8.77731 20.9409 9.22155 21.1895 9.7751" fill="#354A56"/>
</svg>
