<svg width="51" height="51" viewBox="0 0 51 51" fill="none" xmlns="http://www.w3.org/2000/svg">
<path fill-rule="evenodd" clip-rule="evenodd" d="M24.4416 16.501C24.4416 10.7443 29.1082 6.07764 34.8649 6.07764C38.2449 6.07764 40.9416 7.6743 42.7482 9.9943C44.6592 9.60262 46.4911 8.89394 48.1682 7.89764C47.5188 9.91832 46.1594 11.6353 44.3416 12.731L44.3482 12.741C46.0739 12.5325 47.759 12.0685 49.3482 11.3643L49.3449 11.371C48.2216 13.0543 46.8116 14.5376 45.1849 15.7476C45.2716 16.3376 45.3182 16.9276 45.3182 17.5143C45.3182 29.8043 35.9549 44.0976 18.7349 44.0976C13.6572 44.1021 8.68575 42.644 4.41488 39.8976C4.21382 39.7686 4.04284 39.5978 3.91356 39.3969C3.78427 39.196 3.69969 38.9696 3.66554 38.7332C3.6314 38.4967 3.6485 38.2557 3.71567 38.0264C3.78285 37.7971 3.89853 37.585 4.05488 37.4043C4.20357 37.1571 4.42037 36.958 4.67932 36.8309C4.93827 36.7038 5.22838 36.6541 5.51488 36.6876C8.56822 37.0476 11.6149 36.6743 14.3049 35.501C12.9781 34.9147 11.7903 34.0545 10.8194 32.9768C9.84852 31.8991 9.11656 30.6282 8.67155 29.2476C8.58927 28.9908 8.57773 28.7166 8.63815 28.4538C8.69857 28.191 8.82871 27.9494 9.01488 27.7543C7.91941 26.7929 7.04194 25.6086 6.44121 24.2807C5.84048 22.9527 5.53034 21.5118 5.53155 20.0543V19.941C5.53147 19.5923 5.6529 19.2544 5.87494 18.9855C6.09699 18.7166 6.40578 18.5335 6.74822 18.4676C5.99248 17.0092 5.59917 15.3902 5.60155 13.7476C5.60155 12.1876 5.61155 10.221 6.70822 8.44764C6.82539 8.25977 6.98269 8.10017 7.16884 7.9803C7.355 7.86042 7.56538 7.78325 7.78488 7.7543C8.10318 7.65392 8.44427 7.6514 8.76401 7.74709C9.08375 7.84277 9.36739 8.03224 9.57822 8.29097C13.294 12.8619 18.6085 15.8493 24.4449 16.6476L24.4416 16.501ZM18.7349 40.7643C16.1845 40.7662 13.6514 40.3461 11.2382 39.521C14.1408 39.0422 16.8787 37.8485 19.2049 36.0476C19.4487 35.8564 19.6273 35.5944 19.7161 35.2975C19.805 35.0007 19.7997 34.6836 19.7011 34.3899C19.6024 34.0962 19.4152 33.8402 19.1652 33.6571C18.9152 33.4741 18.6147 33.373 18.3049 33.3676C17.1889 33.3476 16.0927 33.07 15.1017 32.5565C14.1106 32.0431 13.2516 31.3077 12.5916 30.4076C13.2249 30.3576 13.8449 30.2476 14.4449 30.0876C14.772 30.0002 15.0598 29.8047 15.2617 29.5329C15.4636 29.2611 15.5675 28.929 15.5567 28.5906C15.5459 28.2522 15.4209 27.9274 15.2021 27.6691C14.9833 27.4107 14.6835 27.234 14.3516 27.1676C13.0834 26.9107 11.9069 26.3198 10.9435 25.4561C9.9801 24.5923 9.26482 23.487 8.87155 22.2543C9.53822 22.4143 10.2349 22.511 10.9482 22.5343C11.2742 22.5453 11.5949 22.4497 11.8616 22.262C12.1284 22.0744 12.3268 21.8049 12.4266 21.4944C12.5265 21.1839 12.5224 20.8493 12.415 20.5413C12.3077 20.2333 12.1028 19.9687 11.8316 19.7876C10.8369 19.125 10.0213 18.2269 9.45723 17.1732C8.89316 16.1195 8.59809 14.9428 8.59822 13.7476C8.59822 13.1876 8.60822 12.691 8.64155 12.2376C13.3058 16.9976 19.5922 19.8254 26.2482 20.1576C26.5052 20.1707 26.7618 20.1241 26.9978 20.0214C27.2338 19.9187 27.4428 19.7628 27.6084 19.5658C27.7741 19.3689 27.8919 19.1362 27.9525 18.8861C28.0132 18.636 28.0152 18.3753 27.9582 18.1243C27.7134 17.0835 27.7072 16.0008 27.94 14.9572C28.1728 13.9136 28.6386 12.9362 29.3026 12.0981C29.9666 11.26 30.8116 10.583 31.7742 10.1176C32.7369 9.6523 33.7923 9.41072 34.8616 9.41097C38.9749 9.41097 41.9816 13.221 41.9816 17.5176C41.9816 28.371 33.7316 40.7643 18.7349 40.7643Z" fill="#354A56"/>
</svg>
