<svg width="50" height="51" viewBox="0 0 50 51" fill="none" xmlns="http://www.w3.org/2000/svg">
<path fill-rule="evenodd" clip-rule="evenodd" d="M38.3396 12.5831C36.607 10.8391 34.5456 9.45629 32.2747 8.51469C30.0039 7.57309 27.5687 7.09147 25.1104 7.09772C14.8021 7.09772 6.41042 15.4873 6.40625 25.7998C6.40625 29.0956 7.26667 32.3123 8.90208 35.1498L6.25 44.8394L16.1646 42.2373C18.9071 43.7302 21.9796 44.513 25.1021 44.5144H25.1104C35.4167 44.5144 43.8083 36.1248 43.8125 25.8123C43.8196 23.355 43.3396 20.9206 42.4002 18.6499C41.4608 16.3792 40.0807 14.3172 38.3396 12.5831ZM25.1104 41.3581H25.1042C22.3198 41.3584 19.5867 40.6093 17.1917 39.1894L16.625 38.8519L10.7417 40.3956L12.3104 34.6602L11.9417 34.0727C10.385 31.5944 9.5609 28.7264 9.56458 25.7998C9.56875 17.229 16.5417 10.256 25.1167 10.256C27.1589 10.2515 29.1817 10.6521 31.068 11.4345C32.9544 12.2169 34.6668 13.3657 36.1062 14.8144C37.5534 16.2561 38.7004 17.9704 39.481 19.8581C40.2616 21.7458 40.6604 23.7696 40.6542 25.8123C40.65 34.3831 33.6771 41.3581 25.1104 41.3581ZM33.6375 29.7144C33.1687 29.479 30.8729 28.3498 30.4437 28.1936C30.0167 28.0373 29.7062 27.9602 29.3937 28.4269C29.0812 28.8935 28.1854 29.9456 27.9125 30.2581C27.6396 30.5706 27.3667 30.6081 26.9 30.3748C26.4333 30.1415 24.9271 29.6477 23.1417 28.056C21.7521 26.8165 20.8146 25.2873 20.5417 24.8185C20.2687 24.3498 20.5125 24.0977 20.7479 23.8644C20.9583 23.656 21.2146 23.3186 21.4479 23.0456C21.6812 22.7727 21.7583 22.579 21.9146 22.2665C22.0708 21.954 21.9937 21.681 21.875 21.4477C21.7583 21.2123 20.8229 18.9123 20.4333 17.9769C20.0562 17.0706 19.6708 17.1915 19.3833 17.179C19.0856 17.1668 18.7876 17.1612 18.4896 17.1623C18.2526 17.1683 18.0195 17.2233 17.8047 17.3236C17.59 17.424 17.3983 17.5677 17.2417 17.7456C16.8125 18.2144 15.6062 19.3435 15.6062 21.6435C15.6062 23.9436 17.2812 26.1665 17.5146 26.479C17.7479 26.7915 20.8104 31.5102 25.4979 33.5352C26.6146 34.0165 27.4854 34.304 28.1625 34.5206C29.2812 34.8769 30.3 34.8248 31.1062 34.7061C32.0042 34.5727 33.8708 33.5769 34.2604 32.4852C34.65 31.3935 34.65 30.4581 34.5333 30.2623C34.4167 30.0665 34.1021 29.9477 33.6375 29.7144Z" fill="#354A56"/>
</svg>
